# xmcd
#
# Track frame offsets:
#	150
#	16224
#	40859
#	56044
#	67966
#	82189
#	103188
#	120600
#	146078
#	158178
#	176712
#	185804
#	206717
#	219793
#	232340
#
# Disc length: 3310 seconds
#
# Revision: 0
# Processed by: cddbd v1.5.1PL0 Copyright (c) Steve Scherf et al.
# Submitted via: dBpowerAMP V4.0
#
DISCID=e10cec0f
DTITLE=Various Artist - Les titres essentiels
DYEAR=1900
DGENRE=Acid Punk
TTITLE0=Segan´/ Happy days
TTITLE1=Tori Robinson and the Vintage jazzmen - Down by the riverside
TTITLE2=The accord singers - Amen
TTITLE3=Take five - Joshua fit the battle of Jericho
TTITLE4=Louis Armstrong - Nobody knows the trouble i´ve seen
TTITLE5=Jo ann pickens - Glory,glory hallelujah
TTITLE6=The palata singers - Kumbaya my lord
TTITLE7=Alice ridley and the New York gospel singers
TTITLE8=Louis Armstrong - When the saints go marchín in
TTITLE9=Bischop Paul S. Norton Sr and the greater St Stephen Mass choir - We shall overcome
TTITLE10=The golden gate Quartet - Rock my soul
TTITLE11=The palata singers - Swing low sweet chariot
TTITLE12=Marian Anderson - Let my people go
TTITLE13=The golden gate Quartet - Jezebel
TTITLE14=Myrtha Morusma and the New York Gospel Singers - Amazing grace
EXTD=
EXTT0=
EXTT1=
EXTT2=
EXTT3=
EXTT4=
EXTT5=
EXTT6=
EXTT7=
EXTT8=
EXTT9=
EXTT10=
EXTT11=
EXTT12=
EXTT13=
EXTT14=
PLAYORDER=
